<?xml version="1.0" encoding="UTF-8"?>
<svg id="_圖層_1" data-name="圖層_1" xmlns="http://www.w3.org/2000/svg" version="1.1" viewBox="0 0 1008 767">
  <!-- Generator: Adobe Illustrator 29.2.1, SVG Export Plug-In . SVG Version: 2.1.0 Build 116)  -->
  <defs>
    <style>
      .st0 {
        fill: #6f9c76;
        stroke: #fff;
        stroke-linecap: round;
        stroke-linejoin: round;
        stroke-width: .5px;
      }
    </style>
  </defs>
  <g id="features">
    <path id="Kinmen" class="st0" d="M46.2,190.5h0c0,.1-1.1-.3-1.1-.3l-.3-.4.2-.4.4-.8-1.3-.9-.2-.3h-.1c0-.1-2.5-2-2.5-2l-1.8-1.9-2.7,1-1.3,1.6.2.7v.6c-.1,0-.4.2-.4.2h-.3c0-.1-.4,2.3-.4,2.3l-5,5.9-11.4-4.1.2,1-.2,1h-.3c0,.1,1.1,1.2,1.1,1.2l-.4,8.2-3.3,2.6,2.5,2.7-1.4-.6-1.9-.2-1.7-.7-.9-1.5.3-.6,1.6-1.9.5-1v-1.4c.1,0,.1-1.8.1-1.8l-.6-3.1-1.2-3-.2-1.6,1.1-.6,5.5-2.7,7.2,4.7,5-.6.8-6.3,1.7-3.9,5.3-1.1,5.2,4.7,2,5.3h0ZM46.4,201l.3-2.1h.3l-.2,1.7-.4.4h0ZM47.3,196l-1-3v-.7c.1,0,.4-.4.4-.4l.8,2.4-.2,1.7h0Z"/>
    <path id="Penghu" class="st0" d="M274.7,378.6l.9,2.9-.4,2.2-1.4-1.4-1.9-1.3-2-.4-2.8,1.6-2.1.3-1,.5-.5,1.1-.8,2.9-.5.9-3.4,2-3.4.5-3.5-1.4-3.5-3.5.9-1.8,1.9,2.3,2.9.6,3.1-.8,2.6-2.1-1.8-.7-1.4-.8-1.1-1.2-1-1.6-.4.7v.2l-.2.2-.7.4-.2-2.9.2-2.9h1.3l1.5.4,5.3-3.4,3.4-1.1-.9,3.2-.4.9,2.9-.9,2.2.3,1.6-.2,1.2-1.9,3.4,6.2h0ZM238.9,372.4l2.3-7.5,2.3-2.2,3,2.6-1.8,1.1-1.2,2.6-2,6.1v1.6c-.1,0,.4,1.4.4,1.4l-.2,1-2.2.3h-1.6c0,0-1.1.3-1.1.3l-.9.4-.9.8h-2.7l.5-1.5.9-.9,1.3-.5h1.8c0,0,1.6-.7,1.6-.7l.4-1.5v-3.4q.1,0,.1,0ZM257,367.4l-.6-2.5-1.5-2.1-3.1-3.1,4-3,2.4,1.3,2.3,2,1,2.1-1.8,1.7.7,2.5-1,1.7-1.6.5-.8-1.1h0Z"/>
    <path id="Taoyuan" class="st0" d="M522.2,92.1l6.4-10.3,5-5.9,5.2-4.4,13.2-4.4,3.1-1.9,2.7-2.4,3.3-1.8,6.4-2.3,14.5-2.6,3,3.3,4.6,2.2,3.4,2.2,2.3,2.1,2.9.7,3.1,1.6,3.7,5.4.3,2.9-.7,3-2.4,2.5-9.4,2.8-2.7,2.9.2,4.5-.8,4.1.8,3.7,3.8,3.7.8,3.7-1,4.8,3.7,2.1,5.3-.3,3.7,1.4,6,8.9-1,3.8-2.3,2.7.6,3.7,1,4.1,6.4,6,1.8,4-2.2.6-3.9,2.8,2.3,9-1.6,2.7-2.5,1-2.3-.5-2.9,1.1-.3,1.1-3.5-1.5-5.2-3-2.9-2.1-4-.7-4.5-2.6-3.7-2.9-.4-3.1,3.3-4.7,1.4-5.6-1.2-5.2-.2-3.6-2.5-1.9-3.1-1.6-1.9-3.3-2.4-2.5-2.8.2-2.8-.5-2.2-2.2-3-2.2-4.8-1.5-2.4-2.7.8-4.2-2.6-3-4.9-1.6-3-1.4-3.1-.9-3.6-1.4-2.9-6.3-3.3-2.2-9.8.7-2.3-.8h0Z"/>
    <path id="Hsinchu" class="st0" d="M522.2,92.1l2.3.8,9.8-.7,3.3,2.2,2.9,6.3,3.6,1.4,3.1.9,3,1.4,4.9,1.6,2.6,3-.8,4.2,2.4,2.7,4.8,1.5,3,2.2,2.2,2.2,2.8.5,2.8-.2,2.4,2.5,1.9,3.3,3.1,1.6,2.5,1.9.2,3.6,1.2,5.2-1.4,5.6-3.3,4.7.4,3.1,3.7,2.9,4.5,2.6,4,.7,2.9,2.1,5.2,3,3.5,1.5-1.7,4.7-1,3.4.4,3.2-2.7,4.2-10.1,10.2-3.1,7.5-2-.5-7.7.7-.5.4-.5-3.5-3.3-5.6-2.3-2.4-1-3.1-3.6-2.9-9.1,2.3-3.4-.4-4.9.4-5.5,1.5-3-.7.7-3.7.9-3.3-.7-2.9-.7-2.1.7-2.3.5-2.4.3-2.8-.6-3.8-2.7-2.4-8.8-4.2-4.3-3.2-2.8-3.2-3.2-8,1.8-2.2,1.6-4.1,2.5-3.1,4.2-1.7,3.7-.6,1.7-1,.7-2.7-1.3-2.6-2.8-2.8-3.9-2-10.9-3.5-6-2.6h0c0-.1,1.1-1.7,1.1-1.7l.4-2.7.6-2.1,1.5-2.1,1.9-1.6,1.8-.6v-.9c0,0,.4-2.1.4-2.1l1.6-4.4,1.5-2.3h0Z"/>
    <path id="HsinchuCity" class="st0" d="M511.3,112.6l6,2.6,10.9,3.5,3.9,2,2.8,2.8,1.3,2.6-.7,2.7-1.7,1-3.7.6-4.2,1.7-2.5,3.1-1.6,4.1-1.8,2.2-.2.2-3.3.8-3.1-1.3-2-2.7-3-1.9-5-1.9.8-3,4-8.2,1.6-2.1.5-1.2v-1.2l-.5-1.3-.8-1.6,1.1-2.2,1.2-1.3h0Z"/>
    <path id="Miaoli" class="st0" d="M520,141.5l3.2,8,2.8,3.2,4.3,3.2,8.8,4.2,2.7,2.4.6,3.8-.3,2.8-.5,2.4-.7,2.3.7,2.1.7,2.9-.9,3.3-.7,3.7,3,.7,5.5-1.5,4.9-.4,3.4.4,9.1-2.3,3.6,2.9,1,3.1,2.3,2.4,3.3,5.6.5,3.5-2.7,1.9-1.3,4-3.5,1.5h-3.9c0-.1-3,2.1-3,2.1l-3.3,3.1-4.2,2.4-8.4,6.6-4.9,2-6.4,3.5-3.9-1.6-3.6-4-4.4-1.7-7.1-.6-4,2.4-.6,5.3-3.7,2-8.8.5-8.4-4.8-4.7-.9-5.3-2.6-10.9-8-4.5-3.9-3.4-3.6-6.6-10.3,5.2-5.8,1.3-2.9.7-4.8,1.5-4,4.3-7.5,1.2-4.5,1.1-2,4.8-1.4,1.4-1.5.8-1.9,1-1.8,3-3.2,3.4-2.4,4-1.1,5.2,1-.7-3.9,1.9-2.7,2.7-2.7,1.3-4.2.6-1.3,2.6-1.3.3-.9,5,1.9,3,1.9,2,2.7,3.1,1.3,3.3-.8.2-.2h0Z"/>
    <path id="Taichung" class="st0" d="M577.3,200.2l.5-.4,7.7-.7,2,.5,2.6.8-.5,4,1.1,2.6,3.5.8,3.2,1.9,2.7,1.8,2.8-.4,3.4-1.7h3.6l4.2,3.4-3.4,3.5-.3,3-1.7,4.5-5.4,3.4-2.2,3.6-.9,3.7-2.2,2.7-2.5,1.3-.9,1.4-2,1.5-9.6-.9-3.4-.8-3.4.2-8,3.2-4.5.7-4.4.2-6.4,3.3-3.2.6-3.6,2.1-5.7,5.5-3.6,1.4h-4.8c0-.1-3.4,2.7-3.4,2.7l-1.9,3.9-2.5.7-6.4-4.8-2.2,1.4-4.2,5.5-4.3.2-7.3-1.1-4.6,2.2-2.7,6.1-5.4,10.4-3.6,3.4-3,.5-13-1.8h-3c0,0,0-1.1,0-1.1l-3.9-2.6-3.1-.5-.9-2.5v-2.8l-1.4-2.9-2.3-3.6-3.2-2.6-8.5-2.5-3.3-3.9-.7-5.5-1.9-4.6-2.9-2.5-4.2-1.3.5-.6.5-2.4,2.4-1.9,1.6-4.7,1.9-8.8,6.7-11.7,2.1-7.1,2.4-4,9.6-10.6,6.6,10.3,3.4,3.6,4.5,3.9,10.9,8,5.3,2.6,4.7.9,8.4,4.8,8.8-.5,3.7-2,.6-5.3,4-2.4,7.1.6,4.4,1.7,3.6,4,3.9,1.6,6.4-3.5,4.9-2,8.4-6.6,4.2-2.4,3.3-3.1,3-2.2h3.9c0,.1,3.5-1.4,3.5-1.4l1.3-4,2.7-1.9h0Z"/>
    <path id="Changhua" class="st0" d="M428.1,247.3l4.2,1.3,2.9,2.5,1.9,4.6.7,5.5,3.3,3.9,8.5,2.5,3.2,2.6,2.3,3.6,1.4,2.9v2.8l.9,2.5,3.1.5,3.9,2.6v1c0,0,0,2.6,0,2.6l-3.1,1.1-.9,2.1.4,2.9-1.4,3.3-1.2,3.9v4.1c0,0-.9,4.7-.9,4.7l-.7,9.7,1.5,4.5,2.6,2.4,2.8,1,4.1,2.1-.7,2.5-2.8,1.1-1.8,1.7-1.7,1.1-.7.5-8.7-1.7h-4.2c0,0-8.7-4.3-8.7-4.3l-14.2-1.6-8.4-3.2-4.8-1.3-5.4-.3-15.9,1.9-5.5-3.2.6-1,1.1-5.1.9-2.1,5.1-4.9,1.5-2.1,1.9-5.6,3-5.6,4.2-11.6,1.9-3.3,2.2-2.2,1.8-1.2,1.5-.8,1.2-1,.4-2.2.9-2,3.7-2.9.8-2.2.4-7.2.7-2,1.9-1.9,8.2-9.5h0Z"/>
    <path id="Yunlin" class="st0" d="M384.2,323.7l5.5,3.2,15.9-1.9,5.4.3,4.8,1.3,8.4,3.2,14.2,1.6,8.7,4.4h4.2c0,0,8.7,1.6,8.7,1.6l.7-.5,1.4,5.2-1.5,3.4-.7,5.2.7,5.5-1.3,3.7-.7,4.2,2.8,3.4,4.2,1.8,4.9-1.5,6-.6,1.9,2.5h-.4l-.3,3.6v2.5l-2.8.9-8.4,1.7-4.6.5-1.7-2.9-3.4-2.4-6,1.7-2.7.4-9.1-3.3-3.6-4.2-3.8-3.4-4.9.3-9.1,1.7-5.2,1.4-11.8,6.8-2.7,2.7-3.2,1.7-5,4.1-3.9.6-1.4,2.2-1.3,3.5-2.8,2.3h-4.4c0,0-6-3.4-6-3.4l-7.6.8h-.1c0,0-.7,0-.7,0l3.4-3.7-.2-11.8.5-8.9,2-7,3.2-5.6.9-7.2,1.7-6.3.9-2.2,4.4-5.8.7-2,.6-1.1,4-3.1.6-1.2h0Z"/>
    <path id="Chiayi" class="st0" d="M361.5,389.6h.8c0,0,7.6-.9,7.6-.9l6,3.3h4.4c0,0,2.8-2.2,2.8-2.2l1.3-3.5,1.4-2.2,3.9-.6,5-4.1,3.2-1.7,2.7-2.7,11.8-6.8,5.2-1.4,9.1-1.7,4.9-.3,3.8,3.4,3.6,4.2,9.1,3.3,2.7-.4,6-1.7,3.4,2.4,1.7,2.9,4.6-.5,8.4-1.7,2.8-.9v-2.5l.3-3.6h.4l4.4.5,4.8,1.9,3,.8,3.7,2.1-.3,3.8-2.1,3.7.9,3.4,1.9,4.7.3,4.2.8,2.8,5.5,1h18.4c0,0,.6.3.6.3l-13.3,6.8-6.1,4.8-2.5,4.9-3.1,3.7-5.5,3.1-5.8,4.4-3.2,3.8-8.9,5.3-4.2.4-4.9-.5-2.6,2.6v3.5c0,0,.9,3.3.9,3.3l.7,4.8-6-.7-2.7-.8-3.6.5-3.8,1.7h-2.7l-3.3-2.5-1.1-3.3,1.2-10.3-.7-5.4-7.1-7.3-1.3-3.6-1.5-3.1-2.9-1.7-5.1-1.7-6.1.3-11,2.1-5.6,2.5-4.4,3.3-3.4,3.4-4.8,3.7-4.1,2.6-1.8,3.6-4.5,2-5.3-1.3-6.3-1-3.8-1.4,2.8-.2,2.3-1,1,.3-.6-2.3-1.6,1.2-1.3-.4h-1.8v-2.4l1.8-4.1,2.6-.2h3.9l-2.6-7.5-3.1-5.8,1.4-2.6v-1.4l-2.2-1.1.3-1.2,1.3-1.5.6-1.9,3-3.8-6.2.4-.2-6.3h0ZM424.2,405.1l4.9-2,3.2-.4,2.2-1.6-1.9-4.9-1.7-2.9-3-1.6-4-1.5-5.7.5-6.7,1.2-2.7,2.9.6,4.1,4.4,1.7,5.1,3.3,5.3,1.2h0ZM342.1,403.8l10.1-10.2,7.6-9.7,1.8-.5-6.5,10.5-3.2,3.2-2.1,2.6-2.7,2.7-2.2,1.5-3.2,2.6-2.2,1.2,2.6-3.9h0Z"/>
    <path id="Tainan" class="st0" d="M360.1,431.4l3.8,1.4,6.3,1,5.3,1.3,4.5-2,1.8-3.6,4.1-2.6,4.8-3.7,3.4-3.4,4.4-3.3,5.6-2.5,11-2.1,6.1-.3,5.1,1.7,2.9,1.7,1.5,3.1,1.3,3.6,7.1,7.3.7,5.4-1.2,10.3,1.1,3.3,3.3,2.5h2.7l3.8-1.7,3.6-.5,2.7.8,6,.7-1.6,4.8-7.5,10.9-7.2,12.2-4.7,6-5.4,5.3-4.6,3.9-4.5,4.6-3.8,5.1-2.1,3.7-1.7,4-4.6,3.2-4.6,1.9-2.6,1.8-3,1.1-6.1-.7-5.9.6-11.3-1.6-3.5-1.8-2.8-6.2v-.3c-.1,0-4.6,2.6-4.6,2.6l-.7-4.5-1.3-2.6-2.8-2.8,3.5-2.5,1.9-4.3-.8-3.8-4.6-.7-.8,1.4-.8,2.4-1.3,1.9h-2.4c0,0-.9-1.7-.9-1.7l.3-5-.5-1.8-3-1.3-1.6,1.5-1.4,2.1-1.9.5-2.1-1.8-.6-2.5.5-2.4.9-1.7,2.1-1.1,2.7-.4,2.2-.7.7-2.2-1-1.1-6.7-1.7v-1.4h5.6l-.5-1.9-3.1-2.7-2-2.3.5-2.9,1.8-1,1.9-.7,1-1.8-.6-2.8-1-2.3.7-2.2,1-2.6,1.6-1.9-.3-1.7.3-1.6,2.4-6.5,1.2-1.2,1.8-.5-2.7-1.8,1.2-2.9h0Z"/>
    <path id="Kaohsiung" class="st0" d="M461.8,449.8l-.7-4.8-1-3.3v-3.5c0,0,2.7-2.6,2.7-2.6l4.9.5,4.2-.4,8.9-5.3,3.2-3.8,5.8-4.4,5.5-3.1,3.1-3.7,2.5-4.9,6.1-4.8,13.3-6.8,3.2.7,4.2,1.6,3,4.2.5,1.5,1.4,4.2-2.2,3.5-4,1.8-1,2.3.7,2.9,4,2.6,4.6,3.7,2,5.5.2,1.8-11.2,2.8-4.7,2.9-2.9,2.8-5.6,3.7-.6,4.1,1.6,4.3-1.9,3.5-5.3,2.9-.7,5,1.6,7.1-2.2,9.5v8.1l-3.1,4.2-6.2,5.3-1.7,7,1,5.9,2.2,3.3,4.4,4.6.9,3.5-2.8.4-3.8-.7-3.1.2-6.1,4.8-4.3-4-5.4-6.4-5.2,1.3-4.8,4.3-9.4-4.8-6.8,3.2-4.6,5.1-5.7,2.1-12.9-.8-1.3,3.5-.9,5.2-1.9,5.7.4,5v6.9c0,0-4.1,15.3-4.1,15.3l-.2,5.1,2,5.4.3,5.9-5.8,14.8-1.9-.8h-1.1l-1.4.5h-1.5c0,0-9.4-7.3-9.4-7.3l-8.8-12.4,9.2,11.1-1-5.2-1.6-2.9-1.2-2.3-3.8-4.4-6.5-6-2.5-3.1-1.2-3.4,1.6-3.3.8-3-1.1-4.1-1.9-4.1-3.6-5.5-3.3-7.4-.7-3.3v-2.1l1.1-2.6.3-1.7-.4-.9-1-.7-.9-.9-.4-1.7-2.1-3.5-.5-1.4-1.6-9.9,4.5-2.6v.3c.1,0,2.9,6.2,2.9,6.2l3.5,1.8,11.3,1.6,5.9-.6,6.1.7,3-1.1,2.6-1.8,4.6-1.9,4.6-3.2,1.7-4,2.1-3.7,3.8-5.1,4.5-4.6,4.6-3.9,5.4-5.3,4.7-6,7.2-12.2,7.5-10.9,1.6-4.8h0Z"/>
    <path id="Pingtung" class="st0" d="M416.1,603.2l5.8-14.8-.3-5.9-2-5.4.2-5.1,4-15.3v-6.9c0,0-.3-5-.3-5l1.9-5.7.9-5.2,1.3-3.5,12.9.8,5.7-2.1,4.6-5.1,6.8-3.2,9.4,4.8,4.8-4.3,5.2-1.3,5.4,6.4,4.3,4,6.1-4.8,3.1-.2,3.8.7,2.5,4.7.5,3.5,3.9,1,4,2.6-2,9.9v3.8c0,0-1.6,3.5-1.6,3.5l-7,3-3.5,2-5.5,1.2-3.9,3.2-1.7,4.7-2.6,4.8-2.2,5.4-.6,10.6.9,4.7,1.4,4.4.8,5.1v3.8l1.9,3.7,3.3,4-1.8,2.7-3.8,2.3-1.5,2.8-.4,3.3,2,2.8,2.4,1.2,2.3,3.2v4.1c0,0,.3,4.4.3,4.4l2.3,4.3,3.3,3.5,7.4,3.4,3.2-.3.6,37.2-1.1,5.3-1.8,4.3-2.4,1.8-2.9,2.7v6c0,0,1.1,6.6,1.1,6.6l-.2,4.2-3.3-4.9-4.9-3.7-5.7-2.5-5.7-1.4-.2,4.7-1.7,1.7-2.4-.6-2.7-2.2v-1.7c0,0,.8-5,.8-5l-4-6.7-.3-1.8v-1.4l.3-2.4v-7.7l.4-2.3,1.8-2.5.4-2.2-14.4-37.2-1.1-2.1-4-4.9-3.2-7.1-1.4-2.1-5.9-4.6-2.3-1.3-.8-.3-.8-.6-.7-2.6-.5-1-3.1-2.1-7.3-3.4-3.2-2.3-3.5-3-1.6-1h-.2q0,0,0-.1Z"/>
    <path id="Taitung" class="st0" d="M499.7,526.1l2.8-.4-.9-3.5-4.4-4.6-2.2-3.3-1-5.9,1.7-7,6.2-5.3,3.1-4.2v-8.1l2.2-9.5-1.6-7.1.7-5,5.3-2.9,1.9-3.5-1.6-4.3.6-4.1,5.6-3.7,2.9-2.8,4.7-2.9,11.2-2.8.8,5.3,3.7,5.9,5.6,2,4.4,2.1,3.6,3.4,4.5.7,4.1,1.1,6.6,11.5,8.5,7,5.9.8,4.7-2.7.6-4.4v-4.9l2.2-4.3,3.5-9.6,2.6-5.5,1.8-6.1,1.9-4.8,2.5-3.7,2.6-5-.4-4.9-1.3-5,2.8-3.9,7.8-3.8,2.5.8-3.3,19-1.6,3.5-5.1,6.8-1.9,3.5-1.5,4.4-1,8.3v7.3c0,0-.7,6.9-.7,6.9l-3.5,7.2-1.5,1.6-3.4,2.5-1.5,1.6-.8,1.6-1.2,4.2-3.5,6.1-2.1,9.4-1.5,4.2-7.4,10.7-.9,2-10,8.4-2.4,2.8-.4,1.9.5,4.5v2c0,0-1,2.3-1,2.3l-1.6,2.6-3.4,4.3-3.4,3.2-11.6,7.8-7.8,8.5-1.9,1-1.5,2-3.8,9.7-1.8,3.6-5.8,7.3-2.4,4.3-1.3,8.8-3.5,12.1-6.9,12.1-1,4.1-1.2,11.6.2,10.5-3.2.3-7.4-3.4-3.3-3.5-2.3-4.3-.4-4.4v-4.1c0,0-2.2-3.2-2.2-3.2l-2.4-1.2-2-2.8.4-3.3,1.5-2.8,3.8-2.3,1.8-2.7-3.3-4-1.9-3.7v-3.8l-.8-5.1-1.4-4.4-.9-4.7.6-10.6,2.2-5.4,2.6-4.8,1.7-4.7,3.9-3.2,5.5-1.2,3.5-2,7-3,1.5-3.5v-3.8c0,0,2.1-9.9,2.1-9.9l-4-2.6-3.9-1-.5-3.5-2.5-4.7h0ZM634.3,692.9l3.3,2.6,1.5,1.7-.2,2-3.9,1.3-5.3-2.2-4.9-3.4-2.8-2.7.8-1.9v-1.9l-.7-1.6-1.3-1.5h14.1v1.2l-.4.8-.6,1.7-.2,2.1.6,1.8h0ZM614.8,567l-1-3,.4-.4,7.3-.6.8.5.5,1.4-.6,2.8-.6,1.2-.3,1.2.3,1.1v.8c0,0-.6,0-.6,0h-1.3l-.6-.2-.3-.4-1.9-.7-2.1-3.6h0Z"/>
    <path id="Hualien" class="st0" d="M592.6,241.4l2-1.5.9-1.4,2.5-1.3,2.2-2.7.9-3.7,2.2-3.6,5.4-3.4,1.7-4.5.3-3,3.4-3.5,1.8,1.5,4.7,2.2,10.8,2.8,6,2.3h4.7l3.5-3.3,1.7-4.3,2.7-.6,13.4,7.9,8,1.3h.8l.5.5.6,1.1.5,1.1.2.7-1,1.7-4.2,4.1-4.6,6.3-3.3,2.7-1,1.4.5,1.5-.6,1.1-4.9,3.6-1.8,1.8-2,4.3-2,8.8-5.4,7.8-1.1,3.2.2,3.4,1.3,3.8,1.1,1.6.9.7.6,1v2.3c0,0-.7,2.7-.7,2.7l-2.7,4.1-.5,2.5-.3,4.6-2.3,11.7-4.6,12.4-5.8,28.8-3.4,7.1-8,46.2-2.5-.8-7.8,3.8-2.8,3.9,1.3,5,.4,4.9-2.6,5-2.5,3.7-1.9,4.8-1.8,6.1-2.6,5.5-3.5,9.6-2.2,4.3v4.9l-.6,4.4-4.7,2.7-5.9-.8-8.5-7-6.6-11.5-4.1-1.1-4.5-.7-3.6-3.4-4.4-2.1-5.6-2-3.7-5.9-.8-5.3-.2-1.8-2-5.5-4.6-3.7-4-2.6-.7-2.9,1-2.3,4-1.8,2.2-3.5-1.4-4.2,4.3-2.5,2.2-2.1-1.2-4.4,1.1-1.9,1.1-3,3.7-2.7,5.4-1.2,5.3-.2,3.8-3.4,1-6.2,2.8-3.7,5.5-2,3.3-2.3,1.1-3.6,2.3-9.1.9-6-.7-5.2-.8-3.9-2.3-2.9-1.5-2.9,4.1-6.8v-2.7c0,0,1.9-5.1,1.9-5.1l2.8-6.1,2.2-6.3,1.1-7.2.5-5.4-1.3-3.2-1.5-2.4,1.7-5.5,3.7-7.7,5.8-7.6v-2.7c0,0-.9-3.3-.9-3.3l-3.8-2.4-2-2.2-.2-7.2,2.7-2.1,4.7-1.6,3.8-1.7-.2-2.6-1-4.5h0Z"/>
    <path id="Yilan" class="st0" d="M605.7,166.4l.3-1.1,2.9-1.1,2.3.5,2.5-1,1.6-2.7-2.3-9,3.9-2.8,2.2-.6,4.2-1.2,3.5-1.3,2.7-2.4,3.6-2.5,4.8-2.3,2.8-2-.3-1.4-.7-2.3v-3c0,0,1.3-3.6,1.3-3.6l3.4-2.9,2.7-1.6,9.4-3.8,9.7-5.9,4.5-1.3,3.6-2.6,2.3-3.7,2.3-2.9,2.7-1.4,2.5-.9,3.3-2.1,1.2-2.8-1.8-2.5,1-2.2,8.1-1.6,2.6-1.8,6-3.2,4.3-.9,2.4,1.4.6.8-8.6,4.3-4,3.4-13.5,16.4-2.1,3.5-1.7,4.8-1.1,5.6-.4,5.5.2,5.3,2.4,11.2-.2,2.9-1,2.8.2,5.8,2.4,4.5,4.7,2.9,5.5,1.1v1.2l-2.3-.2-2.2.2-1.9.6-1.3,1,1.9,3.6.9,4.7-.6,4.1-4.3,2.4-.3,1.8.6,2.1,1.2,2,.4,2-1.8,1.7-4.5,2.6-5,5.8-.2,2.3.3,5-.8,2-1,1.6-.6,2.3-.3,4.6-.4,1.2-.7.9-.4,1,.7,1.2.2.2h-.8l-8-1.3-13.4-7.9-2.7.6-1.7,4.3-3.5,3.3h-4.7l-6-2.3-10.8-2.8-4.7-2.2-1.8-1.5-4.2-3.4h-3.6l-3.4,1.7-2.8.4-2.7-1.8-3.2-1.9-3.5-.8-1.1-2.6.5-4-2.6-.8,3.1-7.5,10.1-10.2,2.7-4.2-.4-3.2,1-3.4,1.7-4.7h0Z"/>
    <path id="NewTaipei" class="st0" d="M619.1,148.6l-1.8-4-6.4-6-1-4.1-.6-3.7,2.3-2.7,1-3.8-6-8.9-3.7-1.4-5.3.3-3.7-2.1,1-4.8-.8-3.7-3.8-3.7-.8-3.7.8-4.1-.2-4.5,2.7-2.9,9.4-2.8,2.4-2.5.7-3-.3-2.9-3.7-5.4-3.1-1.6-2.9-.7-2.3-2.1-3.4-2.2-4.6-2.2-3-3.3,8.1-1.5,3.4-1.3,4.5-3.7,1.3-.7,1.6-.3h2.2l2.6.8,1.3,1.9.9,2,1.1,1.1,2.5-1-2.6-4.1-4.2-4.2-2.2-1.4.7-1.9,1.3-1.1,1.3-.7.6-.6,1.5-3.8,2.3-4.2,4.7-4.3,7-3.5,7.9-1.8,7.8.9,3.2,2.5,7.3,10.1,2.5,5.4.9-.3,1.9-.6,2.3-.2,1.5.4v.7c0,0-.8.9-.8.9l-.7,1.3v1.5l.8.9,1.6,1.2-3.1,2.1-5.2,2.3-2.3,1.5.4,2.1,2.1,2.7,1.2,2.5,2.1,2.5,2.6,2.5,2.2,1.6,7.6,3.1,3.7.5,2.9-1.1,1.8-1.3.3-1.8-2.7-2.8v-2.2c0,0,.1-8.6.1-8.6l24.9,6.1,2.4,1.5-1.2,2.6-.3,2.1.5,3.8,1.7,6.2,1.9,3,1.6.7,5-.8,2.6.3,3,.8,2.7,1.3,1.5,1.9-6.3,3.1-.6-.8-2.4-1.4-4.3.9-6,3.2-2.6,1.8-8.1,1.6-1,2.2,1.8,2.5-1.2,2.8-3.3,2.1-2.5.9-2.7,1.4-2.3,2.9-2.3,3.7-3.6,2.6-4.5,1.3-9.7,5.9-9.4,3.8-2.7,1.6-3.4,2.9-1.4,3.6v3c0,0,.8,2.3.8,2.3l.3,1.4-2.8,2-4.8,2.3-3.6,2.5-2.7,2.4-3.5,1.3-4.2,1.2h0ZM641.8,88.1l3-1.2,5.5-7,1.4-3-2.7-2.3-3.3-1.9v-3.6c0,0,1-4.8,1-4.8l-1.1-3.2-2.8-2.5-1.8-7.2-1.2-2.6-1.1-2.4-.3-2.4.4-2.6-1.5-1.6-2.8-.9-2.9,1.4-2.1,1.8-7.8,4.7-2.6,2.9-1.5,3.3-1.3,1.7-1.2,2.1,2.7,3.1,4.2,4,.8,4.5-1.1,5.3,2.9,4.9,4.1,3.2,2.8,3.2,2.6,2.3,3.5.8h4.2,0Z"/>
    <path id="Keelung" class="st0" d="M671.8,52.1l-.2,8.6v2.2c0,0,2.8,2.8,2.8,2.8l-.3,1.8-1.8,1.3-2.9,1.1-3.7-.5-7.6-3.1-2.2-1.6-2.6-2.5-2.1-2.5-1.2-2.5-2.1-2.7-.4-2.1,2.3-1.5,5.2-2.3,3.1-2.1,1.1.7.5.8,1.2,1.1,2.8,1.1,8.1,1.9h0Z"/>
    <path id="Nantou" class="st0" d="M464.5,286.1h3c0,0,13,1.9,13,1.9l3-.5,3.6-3.4,5.4-10.4,2.7-6.1,4.6-2.2,7.3,1.1,4.3-.2,4.2-5.5,2.2-1.4,6.4,4.8,2.5-.7,1.9-3.9,3.4-2.8h4.8c0,.1,3.6-1.3,3.6-1.3l5.7-5.5,3.6-2.1,3.2-.6,6.4-3.3,4.4-.2,4.5-.7,8-3.2,3.4-.2,3.4.8,9.6.9,1,4.5.2,2.6-3.8,1.7-4.7,1.6-2.7,2.1.2,7.2,2,2.2,3.8,2.4,1,3.3v2.7c0,0-5.9,7.6-5.9,7.6l-3.7,7.7-1.7,5.5,1.5,2.4,1.3,3.2-.5,5.4-1.1,7.2-2.2,6.3-2.8,6.1-1.8,5.1v2.7c0,0-4.2,6.8-4.2,6.8l1.5,2.9,2.3,2.9.8,3.9.7,5.2-.9,6-2.3,9.1-1.1,3.6-3.3,2.3-5.5,2-2.8,3.7-1,6.2-3.8,3.4-5.3.2-5.4,1.2-3.7,2.7-1.1,3-1.1,1.9,1.2,4.4-2.2,2.1-4.3,2.5-.5-1.5-3-4.2-4.2-1.6-3.2-.7-.6-.2h-18.4c0,0-5.5-1.1-5.5-1.1l-.8-2.8-.3-4.2-1.9-4.7-.9-3.4,2.1-3.7.3-3.8-3.7-2.1-3-.8-4.8-1.9-4.4-.5-1.9-2.5-6,.6-4.9,1.5-4.2-1.8-2.8-3.4.7-4.2,1.3-3.7-.7-5.5.7-5.2,1.5-3.4-1.4-5.2,1.7-1.1,1.8-1.7,2.8-1.1.7-2.5-4.1-2.1-2.8-1-2.6-2.4-1.5-4.5.7-9.7.8-4.7v-4.1c0,0,1.3-3.9,1.3-3.9l1.4-3.3-.4-2.9.9-2.1,3.1-1.1v-2.6h0Z"/>
    <path id="Taipei" class="st0" d="M641.8,88.1h-4.2l-3.5-.8-2.6-2.3-2.8-3.2-4.1-3.2-2.9-4.9,1.1-5.3-.8-4.5-4.2-4-2.7-3.1,1.2-2.1,1.3-1.7,1.5-3.3,2.6-2.9,7.8-4.7,2.1-1.8,2.9-1.4,2.8.9,1.5,1.6-.4,2.6.3,2.4,1.1,2.4,1.2,2.6,1.8,7.2,2.8,2.5,1.1,3.2-1.1,4.8v3.6c0,0,3.4,1.9,3.4,1.9l2.7,2.3-1.4,3-5.5,7-3,1.2h0Z"/>
    <path id="ChiayiCity" class="st0" d="M424.2,405.1l-5.3-1.2-5.1-3.3-4.4-1.7-.6-4.1,2.7-2.9,6.7-1.2,5.7-.5,4,1.5,3,1.6,1.7,2.9,1.9,4.9-2.2,1.6-3.2.4-4.9,2h0Z"/>
  </g>
  <g id="points">
    <rect id="_x30_" class="st0" x="47.2" y="676.8"/>
    <rect id="_x31_" class="st0" x="400.3" y="316.3"/>
    <rect id="_x32_" class="st0" x="682.8" y="-141.3"/>
  </g>
  <g id="label_points">
    <rect id="TWKIN" class="st0" x="18.8" y="189.9"/>
    <rect id="TWLIE" class="st0" x="337.2" y="-176.2"/>
    <rect id="TWPEN" class="st0" x="261" y="379.1"/>
    <rect id="TWTAO" class="st0" x="568.6" y="87.4"/>
    <rect id="TWHSQ" class="st0" x="558.7" y="145.3"/>
    <rect id="TWHSZ" class="st0" x="517.4" y="127.1"/>
    <rect id="TWMIA" class="st0" x="505.8" y="185.8"/>
    <rect id="TWTXG" class="st0" x="469.9" y="249.7"/>
    <rect id="TWCHA" class="st0" x="430" y="299.6"/>
    <rect id="TWYUN" class="st0" x="407.6" y="348.1"/>
    <rect id="TWCYQ" class="st0" x="463.2" y="407.2"/>
    <rect id="TWTNN" class="st0" x="401.2" y="466.7"/>
    <rect id="TWKHH" class="st0" x="470.1" y="491.8"/>
    <rect id="TWPIF" class="st0" x="450.7" y="588.9"/>
    <rect id="TWTTT" class="st0" x="540.1" y="499.1"/>
    <rect id="TWHUA" class="st0" x="604" y="332"/>
    <rect id="TWILA" class="st0" x="648.8" y="173.8"/>
    <rect id="TWNWT" class="st0" x="628.3" y="109.8"/>
    <rect id="TWKEE" class="st0" x="661.7" y="58.6"/>
    <rect id="TWNAN" class="st0" x="523.6" y="319"/>
    <rect id="TWTPE" class="st0" x="633.5" y="64.9"/>
    <rect id="TWCYI" class="st0" x="421.7" y="397.5"/>
  </g>
</svg>